{
  "accessors": [
    {
      "bufferView": 2,
      "componentType": 5126,
      "count": 859,
      "max": [
        3.378809928894043,
        16.922399520874023,
        3.378809928894043
      ],
      "min": [
        -3.378809928894043,
        -0.0024679999332875013,
        -3.378809928894043
      ],
      "type": "VEC3"
    },
    {
      "bufferView": 2,
      "byteOffset": 10308,
      "componentType": 5126,
      "count": 859,
      "max": [
        0.9993495345115662,
        1.0,
        0.9993495345115662
      ],
      "min": [
        -0.9993495345115662,
        -1.0,
        -0.9999999403953552
      ],
      "type": "VEC3"
    },
    {
      "bufferView": 1,
      "componentType": 5126,
      "count": 859,
      "max": [
        0.9911370277404785,
        0.9954670071601868
      ],
      "min": [
        0.005803999956697226,
        0.004645999986678362
      ],
      "type": "VEC2"
    },
    {
      "bufferView": 0,
      "componentType": 5125,
      "count": 3150,
      "type": "SCALAR"
    },
    {
      "bufferView": 2,
      "byteOffset": 20616,
      "componentType": 5126,
      "count": 3909,
      "max": [
        3.7049100399017334,
        20.05030059814453,
        3.7207601070404053
      ],
      "min": [
        -3.70415997505188,
        -0.004503999836742878,
        -3.7211999893188477
      ],
      "type": "VEC3"
    },
    {
      "bufferView": 2,
      "byteOffset": 67524,
      "componentType": 5126,
      "count": 3909,
      "max": [
        0.9998623132705688,
        1.0,
        0.9999299049377441
      ],
      "min": [
        -0.9999076724052429,
        -0.999997615814209,
        -0.9998766779899597
      ],
      "type": "VEC3"
    },
    {
      "bufferView": 1,
      "byteOffset": 6872,
      "componentType": 5126,
      "count": 3909,
      "max": [
        0.9486411213874817,
        0.9897969961166382
      ],
      "min": [
        0.0078119998797774315,
        0.007813000120222569
      ],
      "type": "VEC2"
    },
    {
      "bufferView": 0,
      "byteOffset": 12600,
      "componentType": 5125,
      "count": 20124,
      "type": "SCALAR"
    },
    {
      "bufferView": 2,
      "byteOffset": 114432,
      "componentType": 5126,
      "count": 2508,
      "max": [
        3.8348801136016846,
        19.100099563598633,
        3.8348801136016846
      ],
      "min": [
        -3.8348801136016846,
        -0.0024629998952150345,
        -3.8348801136016846
      ],
      "type": "VEC3"
    },
    {
      "bufferView": 2,
      "byteOffset": 144528,
      "componentType": 5126,
      "count": 2508,
      "max": [
        1.0,
        1.0,
        1.0
      ],
      "min": [
        -1.0,
        -1.0,
        -1.0
      ],
      "type": "VEC3"
    },
    {
      "bufferView": 1,
      "byteOffset": 38144,
      "componentType": 5126,
      "count": 2508,
      "max": [
        0.9487699866294861,
        0.9921879768371582
      ],
      "min": [
        0.0078119998797774315,
        0.007813000120222569
      ],
      "type": "VEC2"
    },
    {
      "bufferView": 0,
      "byteOffset": 93096,
      "componentType": 5125,
      "count": 12984,
      "type": "SCALAR"
    },
    {
      "bufferView": 2,
      "byteOffset": 174624,
      "componentType": 5126,
      "count": 3907,
      "max": [
        3.704710006713867,
        13.667200088500977,
        3.7212600708007813
      ],
      "min": [
        -3.7039599418640137,
        -0.005400000140070915,
        -3.7208499908447266
      ],
      "type": "VEC3"
    },
    {
      "bufferView": 2,
      "byteOffset": 221508,
      "componentType": 5126,
      "count": 3907,
      "max": [
        0.999911367893219,
        1.0,
        0.9999610781669617
      ],
      "min": [
        -0.9999112486839294,
        -0.9999976754188538,
        -0.9999604225158691
      ],
      "type": "VEC3"
    },
    {
      "bufferView": 1,
      "byteOffset": 58208,
      "componentType": 5126,
      "count": 3907,
      "max": [
        0.9825040102005005,
        0.9897969961166382
      ],
      "min": [
        0.014968999661505222,
        0.019130999222397804
      ],
      "type": "VEC2"
    },
    {
      "bufferView": 0,
      "byteOffset": 145032,
      "componentType": 5125,
      "count": 20124,
      "type": "SCALAR"
    },
    {
      "bufferView": 2,
      "byteOffset": 268392,
      "componentType": 5126,
      "count": 975,
      "max": [
        3.8341100215911865,
        14.12399959564209,
        3.8341100215911865
      ],
      "min": [
        -3.8341100215911865,
        0.007019000127911568,
        -3.8341100215911865
      ],
      "type": "VEC3"
    },
    {
      "bufferView": 2,
      "byteOffset": 280092,
      "componentType": 5126,
      "count": 975,
      "max": [
        0.9992856383323669,
        1.0,
        0.9992856383323669
      ],
      "min": [
        -0.9992856383323669,
        -1.0,
        -0.9992855787277222
      ],
      "type": "VEC3"
    },
    {
      "bufferView": 1,
      "byteOffset": 89464,
      "componentType": 5126,
      "count": 975,
      "max": [
        0.9911370277404785,
        0.9954670071601868
      ],
      "min": [
        0.005803999956697226,
        0.004645999986678362
      ],
      "type": "VEC2"
    },
    {
      "bufferView": 0,
      "byteOffset": 225528,
      "componentType": 5125,
      "count": 3822,
      "type": "SCALAR"
    },
    {
      "bufferView": 2,
      "byteOffset": 291792,
      "componentType": 5126,
      "count": 1343,
      "max": [
        3.8239803314208984,
        13.295999526977539,
        3.8239400386810303
      ],
      "min": [
        -3.82388973236084,
        -0.004021000117063522,
        -3.8239400386810303
      ],
      "type": "VEC3"
    },
    {
      "bufferView": 2,
      "byteOffset": 307908,
      "componentType": 5126,
      "count": 1343,
      "max": [
        1.0,
        1.0,
        0.9998539686203003
      ],
      "min": [
        -1.0,
        -1.0,
        -0.999845027923584
      ],
      "type": "VEC3"
    },
    {
      "bufferView": 1,
      "byteOffset": 97264,
      "componentType": 5126,
      "count": 1343,
      "max": [
        0.9856950044631958,
        0.9714400172233582
      ],
      "min": [
        0.015232999809086323,
        0.0023870000150054693
      ],
      "type": "VEC2"
    },
    {
      "bufferView": 0,
      "byteOffset": 240816,
      "componentType": 5125,
      "count": 5952,
      "type": "SCALAR"
    },
    {
      "bufferView": 2,
      "byteOffset": 324024,
      "componentType": 5126,
      "count": 975,
      "max": [
        4.0548810958862305,
        10.043700218200684,
        4.0548810958862305
      ],
      "min": [
        -4.0548810958862305,
        -3.000000106112566e-06,
        -4.0548810958862305
      ],
      "type": "VEC3"
    },
    {
      "bufferView": 2,
      "byteOffset": 335724,
      "componentType": 5126,
      "count": 975,
      "max": [
        0.9992661476135254,
        1.0,
        0.9992661476135254
      ],
      "min": [
        -0.9992661476135254,
        -1.0,
        -0.9992660880088806
      ],
      "type": "VEC3"
    },
    {
      "bufferView": 1,
      "byteOffset": 108008,
      "componentType": 5126,
      "count": 975,
      "max": [
        0.9911370277404785,
        0.9954670071601868
      ],
      "min": [
        0.005803999956697226,
        0.004645999986678362
      ],
      "type": "VEC2"
    },
    {
      "bufferView": 0,
      "byteOffset": 264624,
      "componentType": 5125,
      "count": 3822,
      "type": "SCALAR"
    },
    {
      "bufferView": 2,
      "byteOffset": 347424,
      "componentType": 5126,
      "count": 1339,
      "max": [
        3.9936599731445313,
        15.645099639892578,
        3.99360990524292
      ],
      "min": [
        -3.99357008934021,
        -0.002788000041618943,
        -3.99360990524292
      ],
      "type": "VEC3"
    },
    {
      "bufferView": 2,
      "byteOffset": 363492,
      "componentType": 5126,
      "count": 1339,
      "max": [
        1.0,
        1.0,
        0.9998546838760376
      ],
      "min": [
        -0.9999999403953552,
        -0.9999999403953552,
        -0.9998447299003601
      ],
      "type": "VEC3"
    },
    {
      "bufferView": 1,
      "byteOffset": 115808,
      "componentType": 5126,
      "count": 1339,
      "max": [
        0.9856950044631958,
        0.9714400172233582
      ],
      "min": [
        0.015232999809086323,
        0.0023870000150054693
      ],
      "type": "VEC2"
    },
    {
      "bufferView": 0,
      "byteOffset": 279912,
      "componentType": 5125,
      "count": 5832,
      "type": "SCALAR"
    }
  ],
  "asset": {
    "extras": {
      "author": "local.yany (https://sketchfab.com/local.yany)",
      "license": "CC-BY-4.0 (http://creativecommons.org/licenses/by/4.0/)",
      "source": "https://sketchfab.com/3d-models/alcoholic-set-d44761f5b8db418993530e1bcefe2904",
      "title": "alcoholic set"
    },
    "generator": "Sketchfab-16.16.0",
    "version": "2.0"
  },
  "bufferViews": [
    {
      "buffer": 0,
      "byteLength": 303240,
      "name": "floatBufferViews",
      "target": 34963
    },
    {
      "buffer": 0,
      "byteLength": 126520,
      "byteOffset": 303240,
      "byteStride": 8,
      "name": "floatBufferViews",
      "target": 34962
    },
    {
      "buffer": 0,
      "byteLength": 379560,
      "byteOffset": 429760,
      "byteStride": 12,
      "name": "floatBufferViews",
      "target": 34962
    }
  ],
  "buffers": [
    {
      "byteLength": 809320,
      "uri": "scene.bin"
    }
  ],
  "images": [
    {
      "uri": "textures/Can_01_baseColor.png"
    },
    {
      "uri": "textures/Can_02_baseColor.png"
    },
    {
      "uri": "textures/Can_03_baseColor.png"
    },
    {
      "uri": "textures/Can_04_baseColor.png"
    },
    {
      "uri": "textures/Can_05_baseColor.png"
    },
    {
      "uri": "textures/Can_06_baseColor.png"
    },
    {
      "uri": "textures/Can_07_baseColor.png"
    },
    {
      "uri": "textures/Can_08_baseColor.png"
    }
  ],
  "materials": [
    {
      "doubleSided": true,
      "name": "Can_01",
      "pbrMetallicRoughness": {
        "baseColorTexture": {
          "index": 0
        },
        "metallicFactor": 0.0,
        "roughnessFactor": 0.0
      }
    },
    {
      "doubleSided": true,
      "name": "Can_02",
      "pbrMetallicRoughness": {
        "baseColorTexture": {
          "index": 1
        },
        "metallicFactor": 0.0,
        "roughnessFactor": 0.0
      }
    },
    {
      "doubleSided": true,
      "name": "Can_03",
      "pbrMetallicRoughness": {
        "baseColorTexture": {
          "index": 2
        },
        "metallicFactor": 0.0,
        "roughnessFactor": 0.0
      }
    },
    {
      "doubleSided": true,
      "name": "Can_04",
      "pbrMetallicRoughness": {
        "baseColorTexture": {
          "index": 3
        },
        "metallicFactor": 0.0,
        "roughnessFactor": 0.0
      }
    },
    {
      "doubleSided": true,
      "name": "Can_05",
      "pbrMetallicRoughness": {
        "baseColorTexture": {
          "index": 4
        },
        "metallicFactor": 0.0,
        "roughnessFactor": 0.0
      }
    },
    {
      "doubleSided": true,
      "name": "Can_06",
      "pbrMetallicRoughness": {
        "baseColorTexture": {
          "index": 5
        },
        "metallicFactor": 0.0,
        "roughnessFactor": 0.0
      }
    },
    {
      "doubleSided": true,
      "name": "Can_07",
      "pbrMetallicRoughness": {
        "baseColorTexture": {
          "index": 6
        },
        "metallicFactor": 0.0,
        "roughnessFactor": 0.0
      }
    },
    {
      "doubleSided": true,
      "name": "Can_08",
      "pbrMetallicRoughness": {
        "baseColorTexture": {
          "index": 7
        },
        "metallicFactor": 0.0,
        "roughnessFactor": 0.0
      }
    }
  ],
  "meshes": [
    {
      "name": "BW CDS Can 01.Shape_Can_01_0",
      "primitives": [
        {
          "attributes": {
            "NORMAL": 1,
            "POSITION": 0,
            "TEXCOORD_0": 2
          },
          "indices": 3,
          "material": 0,
          "mode": 4
        }
      ]
    },
    {
      "name": "BW CDS Can 02.Shape_Can_02_0",
      "primitives": [
        {
          "attributes": {
            "NORMAL": 5,
            "POSITION": 4,
            "TEXCOORD_0": 6
          },
          "indices": 7,
          "material": 1,
          "mode": 4
        }
      ]
    },
    {
      "name": "BW CDS Can 03.Shape_Can_03_0",
      "primitives": [
        {
          "attributes": {
            "NORMAL": 9,
            "POSITION": 8,
            "TEXCOORD_0": 10
          },
          "indices": 11,
          "material": 2,
          "mode": 4
        }
      ]
    },
    {
      "name": "BW CDS Can 04.Shape_Can_04_0",
      "primitives": [
        {
          "attributes": {
            "NORMAL": 13,
            "POSITION": 12,
            "TEXCOORD_0": 14
          },
          "indices": 15,
          "material": 3,
          "mode": 4
        }
      ]
    },
    {
      "name": "BW CDS Can 05.Shape_Can_05_0",
      "primitives": [
        {
          "attributes": {
            "NORMAL": 17,
            "POSITION": 16,
            "TEXCOORD_0": 18
          },
          "indices": 19,
          "material": 4,
          "mode": 4
        }
      ]
    },
    {
      "name": "BW CDS Can 06.Shape_Can_06_0",
      "primitives": [
        {
          "attributes": {
            "NORMAL": 21,
            "POSITION": 20,
            "TEXCOORD_0": 22
          },
          "indices": 23,
          "material": 5,
          "mode": 4
        }
      ]
    },
    {
      "name": "BW CDS Can 07.Shape_Can_07_0",
      "primitives": [
        {
          "attributes": {
            "NORMAL": 25,
            "POSITION": 24,
            "TEXCOORD_0": 26
          },
          "indices": 27,
          "material": 6,
          "mode": 4
        }
      ]
    },
    {
      "name": "BW CDS Can 08.Shape_Can_08_0",
      "primitives": [
        {
          "attributes": {
            "NORMAL": 29,
            "POSITION": 28,
            "TEXCOORD_0": 30
          },
          "indices": 31,
          "material": 7,
          "mode": 4
        }
      ]
    }
  ],
  "nodes": [
    {
      "children": [
        1
      ],
      "matrix": [
        1.0,
        0.0,
        0.0,
        0.0,
        0.0,
        2.220446049250313e-16,
        -1.0,
        0.0,
        0.0,
        1.0,
        2.220446049250313e-16,
        0.0,
        0.0,
        0.0,
        0.0,
        1.0
      ],
      "name": "Sketchfab_model"
    },
    {
      "children": [
        2
      ],
      "matrix": [
        0.009999999776482582,
        0.0,
        0.0,
        0.0,
        0.0,
        0.0,
        0.009999999776482582,
        0.0,
        0.0,
        -0.009999999776482582,
        0.0,
        0.0,
        0.0,
        0.0,
        0.0,
        1.0
      ],
      "name": "Alcoholic set 2.fbx"
    },
    {
      "children": [
        3,
        6,
        9,
        12,
        15,
        18,
        21,
        24
      ],
      "name": "RootNode"
    },
    {
      "children": [
        4
      ],
      "matrix": [
        1.0,
        0.0,
        0.0,
        0.0,
        0.0,
        1.0,
        0.0,
        0.0,
        0.0,
        0.0,
        1.0,
        0.0,
        -13.440723419189453,
        0.0,
        0.0,
        1.0
      ],
      "name": "BW CDS Can 01"
    },
    {
      "children": [
        5
      ],
      "name": "BW CDS Can 01.Shape"
    },
    {
      "mesh": 0,
      "name": "BW CDS Can 01.Shape_Can_01_0"
    },
    {
      "children": [
        7
      ],
      "name": "BW CDS Can 02"
    },
    {
      "children": [
        8
      ],
      "name": "BW CDS Can 02.Shape"
    },
    {
      "mesh": 1,
      "name": "BW CDS Can 02.Shape_Can_02_0"
    },
    {
      "children": [
        10
      ],
      "matrix": [
        1.0,
        0.0,
        0.0,
        0.0,
        0.0,
        1.0,
        0.0,
        0.0,
        0.0,
        0.0,
        1.0,
        0.0,
        13.44072437286377,
        0.0,
        0.0,
        1.0
      ],
      "name": "BW CDS Can 03"
    },
    {
      "children": [
        11
      ],
      "name": "BW CDS Can 03.Shape"
    },
    {
      "mesh": 2,
      "name": "BW CDS Can 03.Shape_Can_03_0"
    },
    {
      "children": [
        13
      ],
      "matrix": [
        1.0,
        0.0,
        0.0,
        0.0,
        0.0,
        1.0,
        0.0,
        0.0,
        0.0,
        0.0,
        1.0,
        0.0,
        -25.69049835205078,
        0.0,
        0.0,
        1.0
      ],
      "name": "BW CDS Can 04"
    },
    {
      "children": [
        14
      ],
      "name": "BW CDS Can 04.Shape"
    },
    {
      "mesh": 3,
      "name": "BW CDS Can 04.Shape_Can_04_0"
    },
    {
      "children": [
        16
      ],
      "matrix": [
        1.0,
        0.0,
        0.0,
        0.0,
        0.0,
        1.0,
        0.0,
        0.0,
        0.0,
        0.0,
        1.0,
        0.0,
        26.881446838378906,
        0.0,
        0.0,
        1.0
      ],
      "name": "BW CDS Can 05"
    },
    {
      "children": [
        17
      ],
      "name": "BW CDS Can 05.Shape"
    },
    {
      "mesh": 4,
      "name": "BW CDS Can 05.Shape_Can_05_0"
    },
    {
      "children": [
        19
      ],
      "matrix": [
        1.0,
        0.0,
        0.0,
        0.0,
        0.0,
        1.0,
        0.0,
        0.0,
        0.0,
        0.0,
        1.0,
        0.0,
        0.0,
        0.0,
        -13.440725326538086,
        1.0
      ],
      "name": "BW CDS Can 06"
    },
    {
      "children": [
        20
      ],
      "name": "BW CDS Can 06.Shape"
    },
    {
      "mesh": 5,
      "name": "BW CDS Can 06.Shape_Can_06_0"
    },
    {
      "children": [
        22
      ],
      "matrix": [
        1.0,
        0.0,
        0.0,
        0.0,
        0.0,
        1.0,
        0.0,
        0.0,
        0.0,
        0.0,
        1.0,
        0.0,
        13.610859870910645,
        0.0,
        -13.440725326538086,
        1.0
      ],
      "name": "BW CDS Can 07"
    },
    {
      "children": [
        23
      ],
      "name": "BW CDS Can 07.Shape"
    },
    {
      "mesh": 6,
      "name": "BW CDS Can 07.Shape_Can_07_0"
    },
    {
      "children": [
        25
      ],
      "matrix": [
        1.0,
        0.0,
        0.0,
        0.0,
        0.0,
        1.0,
        0.0,
        0.0,
        0.0,
        0.0,
        1.0,
        0.0,
        -14.291402816772461,
        0.0,
        -13.270587921142578,
        1.0
      ],
      "name": "BW CDS Can 08"
    },
    {
      "children": [
        26
      ],
      "name": "BW CDS Can 08.Shape"
    },
    {
      "mesh": 7,
      "name": "BW CDS Can 08.Shape_Can_08_0"
    }
  ],
  "samplers": [
    {
      "magFilter": 9729,
      "minFilter": 9987,
      "wrapS": 10497,
      "wrapT": 10497
    }
  ],
  "scene": 0,
  "scenes": [
    {
      "name": "Sketchfab_Scene",
      "nodes": [
        0
      ]
    }
  ],
  "textures": [
    {
      "sampler": 0,
      "source": 0
    },
    {
      "sampler": 0,
      "source": 1
    },
    {
      "sampler": 0,
      "source": 2
    },
    {
      "sampler": 0,
      "source": 3
    },
    {
      "sampler": 0,
      "source": 4
    },
    {
      "sampler": 0,
      "source": 5
    },
    {
      "sampler": 0,
      "source": 6
    },
    {
      "sampler": 0,
      "source": 7
    }
  ]
}
