{
  "accessors": [
    {
      "bufferView": 2,
      "componentType": 5126,
      "count": 226,
      "max": [
        0.8999999761581421,
        0.699999988079071,
        0.5649999976158142
      ],
      "min": [
        -0.8999999761581421,
        -0.699999988079071,
        -0.5649999976158142
      ],
      "type": "VEC3"
    },
    {
      "bufferView": 2,
      "byteOffset": 2712,
      "componentType": 5126,
      "count": 226,
      "max": [
        1.0,
        1.0,
        1.0
      ],
      "min": [
        -1.0,
        -1.0,
        -1.0
      ],
      "type": "VEC3"
    },
    {
      "bufferView": 1,
      "componentType": 5126,
      "count": 226,
      "max": [
        0.8750000596046448,
        1.0
      ],
      "min": [
        0.125,
        0.0
      ],
      "type": "VEC2"
    },
    {
      "bufferView": 0,
      "componentType": 5125,
      "count": 750,
      "type": "SCALAR"
    },
    {
      "bufferView": 2,
      "byteOffset": 5424,
      "componentType": 5126,
      "count": 64,
      "max": [
        0.8578656315803528,
        0.3928304612636566,
        0.0
      ],
      "min": [
        -0.8927075862884521,
        -0.9456945657730103,
        -0.029999999329447746
      ],
      "type": "VEC3"
    },
    {
      "bufferView": 2,
      "byteOffset": 6192,
      "componentType": 5126,
      "count": 64,
      "max": [
        0.9999988675117493,
        1.0,
        1.0
      ],
      "min": [
        -0.9999988675117493,
        -1.0,
        -1.0
      ],
      "type": "VEC3"
    },
    {
      "bufferView": 1,
      "byteOffset": 1808,
      "componentType": 5126,
      "count": 64,
      "max": [
        1.0,
        1.0
      ],
      "min": [
        0.0,
        0.0
      ],
      "type": "VEC2"
    },
    {
      "bufferView": 1,
      "byteOffset": 2320,
      "componentType": 5126,
      "count": 64,
      "max": [
        1.3758994340896606,
        1.0705347061157227
      ],
      "min": [
        -0.3746737837791443,
        -0.2679903507232666
      ],
      "type": "VEC2"
    },
    {
      "bufferView": 1,
      "byteOffset": 2832,
      "componentType": 5126,
      "count": 64,
      "max": [
        1.0,
        1.0
      ],
      "min": [
        0.0,
        0.0
      ],
      "type": "VEC2"
    },
    {
      "bufferView": 1,
      "byteOffset": 3344,
      "componentType": 5126,
      "count": 64,
      "max": [
        1.0,
        1.0
      ],
      "min": [
        0.0,
        0.0
      ],
      "type": "VEC2"
    },
    {
      "bufferView": 0,
      "byteOffset": 3000,
      "componentType": 5125,
      "count": 132,
      "type": "SCALAR"
    },
    {
      "bufferView": 2,
      "byteOffset": 6960,
      "componentType": 5126,
      "count": 1759,
      "max": [
        0.24721640348434448,
        0.20708931982517242,
        0.07500000298023224
      ],
      "min": [
        -0.24721640348434448,
        -0.2669430673122406,
        -0.07500000298023224
      ],
      "type": "VEC3"
    },
    {
      "bufferView": 2,
      "byteOffset": 28068,
      "componentType": 5126,
      "count": 1759,
      "max": [
        1.0,
        1.0,
        1.0
      ],
      "min": [
        -1.0,
        -1.0,
        -1.0
      ],
      "type": "VEC3"
    },
    {
      "bufferView": 1,
      "byteOffset": 3856,
      "componentType": 5126,
      "count": 1759,
      "max": [
        0.875,
        1.0
      ],
      "min": [
        0.125,
        0.0
      ],
      "type": "VEC2"
    },
    {
      "bufferView": 0,
      "byteOffset": 3528,
      "componentType": 5125,
      "count": 7818,
      "type": "SCALAR"
    },
    {
      "bufferView": 2,
      "byteOffset": 49176,
      "componentType": 5126,
      "count": 1759,
      "max": [
        0.24721640348434448,
        0.20708931982517242,
        0.07500000298023224
      ],
      "min": [
        -0.24721640348434448,
        -0.2669430673122406,
        -0.07500000298023224
      ],
      "type": "VEC3"
    },
    {
      "bufferView": 2,
      "byteOffset": 70284,
      "componentType": 5126,
      "count": 1759,
      "max": [
        1.0,
        1.0,
        1.0
      ],
      "min": [
        -1.0,
        -1.0,
        -1.0
      ],
      "type": "VEC3"
    },
    {
      "bufferView": 1,
      "byteOffset": 17928,
      "componentType": 5126,
      "count": 1759,
      "max": [
        0.875,
        1.0
      ],
      "min": [
        0.125,
        0.0
      ],
      "type": "VEC2"
    },
    {
      "bufferView": 0,
      "byteOffset": 34800,
      "componentType": 5125,
      "count": 7818,
      "type": "SCALAR"
    },
    {
      "bufferView": 2,
      "byteOffset": 91392,
      "componentType": 5126,
      "count": 24,
      "max": [
        1.0,
        0.9999995231628418,
        0.863342821598053
      ],
      "min": [
        -1.0,
        -1.0000004768371582,
        0.012347160838544369
      ],
      "type": "VEC3"
    },
    {
      "bufferView": 2,
      "byteOffset": 91680,
      "componentType": 5126,
      "count": 24,
      "max": [
        1.0,
        1.0,
        1.0
      ],
      "min": [
        -1.0,
        -1.0,
        -1.0
      ],
      "type": "VEC3"
    },
    {
      "bufferView": 1,
      "byteOffset": 32000,
      "componentType": 5126,
      "count": 24,
      "max": [
        0.875,
        1.0
      ],
      "min": [
        0.125,
        0.0
      ],
      "type": "VEC2"
    },
    {
      "bufferView": 0,
      "byteOffset": 66072,
      "componentType": 5125,
      "count": 36,
      "type": "SCALAR"
    },
    {
      "bufferView": 2,
      "byteOffset": 91968,
      "componentType": 5126,
      "count": 24,
      "max": [
        1.0,
        0.9999995231628418,
        0.863342821598053
      ],
      "min": [
        -1.0,
        -1.0000004768371582,
        0.012347160838544369
      ],
      "type": "VEC3"
    },
    {
      "bufferView": 2,
      "byteOffset": 92256,
      "componentType": 5126,
      "count": 24,
      "max": [
        1.0,
        1.0,
        1.0
      ],
      "min": [
        -1.0,
        -1.0,
        -1.0
      ],
      "type": "VEC3"
    },
    {
      "bufferView": 1,
      "byteOffset": 32192,
      "componentType": 5126,
      "count": 24,
      "max": [
        0.875,
        1.0
      ],
      "min": [
        0.125,
        0.0
      ],
      "type": "VEC2"
    },
    {
      "bufferView": 0,
      "byteOffset": 66216,
      "componentType": 5125,
      "count": 36,
      "type": "SCALAR"
    },
    {
      "bufferView": 2,
      "byteOffset": 92544,
      "componentType": 5126,
      "count": 24,
      "max": [
        1.0,
        1.0,
        1.0
      ],
      "min": [
        -1.0,
        -1.0,
        -1.0
      ],
      "type": "VEC3"
    },
    {
      "bufferView": 2,
      "byteOffset": 92832,
      "componentType": 5126,
      "count": 24,
      "max": [
        1.0,
        1.0,
        1.0
      ],
      "min": [
        -1.0,
        -1.0,
        -1.0
      ],
      "type": "VEC3"
    },
    {
      "bufferView": 1,
      "byteOffset": 32384,
      "componentType": 5126,
      "count": 24,
      "max": [
        0.875,
        1.0
      ],
      "min": [
        0.125,
        0.0
      ],
      "type": "VEC2"
    },
    {
      "bufferView": 0,
      "byteOffset": 66360,
      "componentType": 5125,
      "count": 36,
      "type": "SCALAR"
    },
    {
      "bufferView": 2,
      "byteOffset": 93120,
      "componentType": 5126,
      "count": 24,
      "max": [
        1.0,
        1.0,
        1.0
      ],
      "min": [
        -1.0,
        -1.0,
        -1.0
      ],
      "type": "VEC3"
    },
    {
      "bufferView": 2,
      "byteOffset": 93408,
      "componentType": 5126,
      "count": 24,
      "max": [
        1.0,
        1.0,
        1.0
      ],
      "min": [
        -1.0,
        -1.0,
        -1.0
      ],
      "type": "VEC3"
    },
    {
      "bufferView": 1,
      "byteOffset": 32576,
      "componentType": 5126,
      "count": 24,
      "max": [
        0.875,
        1.0
      ],
      "min": [
        0.125,
        0.0
      ],
      "type": "VEC2"
    },
    {
      "bufferView": 0,
      "byteOffset": 66504,
      "componentType": 5125,
      "count": 36,
      "type": "SCALAR"
    },
    {
      "bufferView": 2,
      "byteOffset": 93696,
      "componentType": 5126,
      "count": 24,
      "max": [
        1.0,
        1.0,
        1.0
      ],
      "min": [
        -1.0,
        -1.0,
        -1.0
      ],
      "type": "VEC3"
    },
    {
      "bufferView": 2,
      "byteOffset": 93984,
      "componentType": 5126,
      "count": 24,
      "max": [
        1.0,
        1.0,
        1.0
      ],
      "min": [
        -1.0,
        -1.0,
        -1.0
      ],
      "type": "VEC3"
    },
    {
      "bufferView": 1,
      "byteOffset": 32768,
      "componentType": 5126,
      "count": 24,
      "max": [
        0.875,
        1.0
      ],
      "min": [
        0.125,
        0.0
      ],
      "type": "VEC2"
    },
    {
      "bufferView": 0,
      "byteOffset": 66648,
      "componentType": 5125,
      "count": 36,
      "type": "SCALAR"
    }
  ],
  "asset": {
    "extras": {
      "author": "pharloom_ (https://sketchfab.com/pharloom_)",
      "license": "SKETCHFAB Standard (https://sketchfab.com/licenses)",
      "source": "https://sketchfab.com/3d-models/attendant-table-a97203aef9f5475783ce851a921831d0",
      "title": "attendant table"
    },
    "generator": "Sketchfab-16.28.0",
    "version": "2.0"
  },
  "bufferViews": [
    {
      "buffer": 0,
      "byteLength": 66792,
      "name": "floatBufferViews",
      "target": 34963
    },
    {
      "buffer": 0,
      "byteLength": 32960,
      "byteOffset": 66792,
      "byteStride": 8,
      "name": "floatBufferViews",
      "target": 34962
    },
    {
      "buffer": 0,
      "byteLength": 94272,
      "byteOffset": 99752,
      "byteStride": 12,
      "name": "floatBufferViews",
      "target": 34962
    }
  ],
  "buffers": [
    {
      "byteLength": 194024,
      "uri": "scene.bin"
    }
  ],
  "extensionsUsed": [
    "KHR_materials_specular"
  ],
  "images": [
    {
      "uri": "textures/White_Wood_baseColor.jpeg"
    }
  ],
  "materials": [
    {
      "doubleSided": true,
      "name": "Cube.016__0",
      "pbrMetallicRoughness": {
        "metallicFactor": 0.0,
        "roughnessFactor": 0.6
      }
    },
    {
      "doubleSided": true,
      "name": "Material.001",
      "pbrMetallicRoughness": {
        "baseColorFactor": [
          0.8,
          0.8,
          0.8,
          1.0
        ],
        "metallicFactor": 0.0,
        "roughnessFactor": 0.7737258300203048
      }
    },
    {
      "doubleSided": true,
      "extensions": {
        "KHR_materials_specular": {
          "specularColorFactor": [
            1.0,
            1.0,
            1.0
          ],
          "specularFactor": 0.6567639063280954
        }
      },
      "name": "White_Wood",
      "pbrMetallicRoughness": {
        "baseColorTexture": {
          "index": 0
        },
        "metallicFactor": 0.0,
        "roughnessFactor": 0.8211145618000169
      }
    }
  ],
  "meshes": [
    {
      "name": "Cube.005_Material.001_0",
      "primitives": [
        {
          "attributes": {
            "NORMAL": 1,
            "POSITION": 0,
            "TEXCOORD_0": 2
          },
          "indices": 3,
          "material": 1,
          "mode": 4
        }
      ]
    },
    {
      "name": "Plane_White Wood_0",
      "primitives": [
        {
          "attributes": {
            "NORMAL": 5,
            "POSITION": 4,
            "TEXCOORD_0": 6,
            "TEXCOORD_1": 7,
            "TEXCOORD_2": 8,
            "TEXCOORD_3": 9
          },
          "indices": 10,
          "material": 2,
          "mode": 4
        }
      ]
    },
    {
      "name": "Cube.016__0",
      "primitives": [
        {
          "attributes": {
            "NORMAL": 12,
            "POSITION": 11,
            "TEXCOORD_0": 13
          },
          "indices": 14,
          "material": 0,
          "mode": 4
        }
      ]
    },
    {
      "name": "Cube.015__0",
      "primitives": [
        {
          "attributes": {
            "NORMAL": 16,
            "POSITION": 15,
            "TEXCOORD_0": 17
          },
          "indices": 18,
          "material": 0,
          "mode": 4
        }
      ]
    },
    {
      "name": "Cube.013__0",
      "primitives": [
        {
          "attributes": {
            "NORMAL": 20,
            "POSITION": 19,
            "TEXCOORD_0": 21
          },
          "indices": 22,
          "material": 0,
          "mode": 4
        }
      ]
    },
    {
      "name": "Cube.011__0",
      "primitives": [
        {
          "attributes": {
            "NORMAL": 24,
            "POSITION": 23,
            "TEXCOORD_0": 25
          },
          "indices": 26,
          "material": 0,
          "mode": 4
        }
      ]
    },
    {
      "name": "Cube.010__0",
      "primitives": [
        {
          "attributes": {
            "NORMAL": 28,
            "POSITION": 27,
            "TEXCOORD_0": 29
          },
          "indices": 30,
          "material": 0,
          "mode": 4
        }
      ]
    },
    {
      "name": "Cube.009__0",
      "primitives": [
        {
          "attributes": {
            "NORMAL": 32,
            "POSITION": 31,
            "TEXCOORD_0": 33
          },
          "indices": 34,
          "material": 0,
          "mode": 4
        }
      ]
    },
    {
      "name": "Cube.008__0",
      "primitives": [
        {
          "attributes": {
            "NORMAL": 36,
            "POSITION": 35,
            "TEXCOORD_0": 37
          },
          "indices": 38,
          "material": 0,
          "mode": 4
        }
      ]
    }
  ],
  "nodes": [
    {
      "children": [
        1
      ],
      "matrix": [
        -0.7070683240890503,
        1.5701777968520026e-16,
        -0.7071452140808105,
        0.0,
        -0.7071452140808105,
        -1.5700070667735717e-16,
        0.7070683240890503,
        0.0,
        0.0,
        1.0,
        2.220446049250313e-16,
        0.0,
        0.0,
        0.0,
        0.0,
        1.0
      ],
      "name": "Sketchfab_model"
    },
    {
      "children": [
        2
      ],
      "matrix": [
        0.009999999776482582,
        0.0,
        0.0,
        0.0,
        0.0,
        0.0,
        0.009999999776482582,
        0.0,
        0.0,
        -0.009999999776482582,
        0.0,
        0.0,
        0.0,
        0.0,
        0.0,
        1.0
      ],
      "name": "untitled.fbx"
    },
    {
      "children": [
        3
      ],
      "name": "RootNode"
    },
    {
      "children": [
        4,
        5,
        7,
        9,
        11,
        13,
        15,
        17,
        19
      ],
      "matrix": [
        4.371139006309477e-06,
        1.1102230246251565e-14,
        99.99999999999991,
        0.0,
        87.09083557128889,
        -3.806861484577465e-06,
        -3.8068614894119776e-06,
        0.0,
        4.371139011860592e-06,
        99.99999999999991,
        -1.9984014443252818e-13,
        0.0,
        0.0,
        0.0,
        0.0,
        1.0
      ],
      "name": "Cube.005"
    },
    {
      "mesh": 0,
      "name": "Cube.005_Material.001_0"
    },
    {
      "children": [
        6
      ],
      "matrix": [
        1.0,
        -1.7763568327828054e-15,
        3.944304526105058e-31,
        0.0,
        1.7763568327828054e-15,
        1.0,
        -5.473580963431906e-26,
        0.0,
        -3.944304525132755e-31,
        5.473580963431906e-26,
        1.0,
        0.0,
        0.0176234133541584,
        0.28569456934928894,
        0.3349999785423279,
        1.0
      ],
      "name": "Plane"
    },
    {
      "mesh": 1,
      "name": "Plane_White Wood_0"
    },
    {
      "children": [
        8
      ],
      "matrix": [
        0.9874647259712219,
        -1.7540896997931391e-15,
        3.944304526105058e-31,
        0.0,
        1.776356819295902e-15,
        1.0,
        -5.473580963431906e-26,
        0.0,
        -3.99437511174439e-31,
        5.473580963431906e-26,
        1.0,
        0.0,
        -0.31582406163215637,
        0.48787054419517517,
        0.07513707876205444,
        1.0
      ],
      "name": "Cube.016"
    },
    {
      "mesh": 2,
      "name": "Cube.016__0"
    },
    {
      "children": [
        10
      ],
      "matrix": [
        0.9874647259712219,
        -1.7540896997931391e-15,
        3.944304526105058e-31,
        0.0,
        1.776356819295902e-15,
        1.0,
        -5.473580963431906e-26,
        0.0,
        -3.99437511174439e-31,
        5.473580963431906e-26,
        1.0,
        0.0,
        -0.31582406163215637,
        0.48787054419517517,
        -0.07486292719841003,
        1.0
      ],
      "name": "Cube.015"
    },
    {
      "mesh": 3,
      "name": "Cube.015__0"
    },
    {
      "children": [
        12
      ],
      "matrix": [
        0.007499999832361937,
        -1.4802973968414895e-17,
        0.0,
        0.0,
        4.440892172142676e-16,
        0.22499999403953552,
        -1.8321132534801008e-24,
        0.0,
        1.6071541406283372e-38,
        8.142725786731238e-24,
        1.0,
        0.0,
        -0.0659656673669815,
        0.4535250961780548,
        -0.5622100830078125,
        1.0
      ],
      "name": "Cube.013"
    },
    {
      "mesh": 4,
      "name": "Cube.013__0"
    },
    {
      "children": [
        14
      ],
      "matrix": [
        0.007499999832361937,
        -1.4802973968414895e-17,
        0.0,
        0.0,
        4.440892172142676e-16,
        0.22499999403953552,
        -1.8321132534801008e-24,
        0.0,
        1.6071541406283372e-38,
        8.142725786731238e-24,
        1.0,
        0.0,
        -0.565500020980835,
        0.45352521538734436,
        -0.5622100830078125,
        1.0
      ],
      "name": "Cube.011"
    },
    {
      "mesh": 5,
      "name": "Cube.011__0"
    },
    {
      "children": [
        16
      ],
      "matrix": [
        0.15000000596046448,
        -1.988459292536488e-16,
        0.0,
        0.0,
        8.881783918163163e-16,
        0.6699999570846558,
        -4.205666978252417e-24,
        0.0,
        1.248178746365565e-40,
        9.415672732014163e-26,
        0.014999999664723873,
        0.0,
        -0.7230000495910645,
        0.009676573798060417,
        0.044400811195373535,
        1.0
      ],
      "name": "Cube.010"
    },
    {
      "mesh": 6,
      "name": "Cube.010__0"
    },
    {
      "children": [
        18
      ],
      "matrix": [
        0.15000000596046448,
        -1.988459292536488e-16,
        0.0,
        0.0,
        8.881783918163163e-16,
        0.6699999570846558,
        -4.205666978252417e-24,
        0.0,
        1.248178746365565e-40,
        9.415672732014163e-26,
        0.014999999664723873,
        0.0,
        -0.7230000495910645,
        0.009676573798060417,
        -0.2527996003627777,
        1.0
      ],
      "name": "Cube.009"
    },
    {
      "mesh": 7,
      "name": "Cube.009__0"
    },
    {
      "children": [
        20
      ],
      "matrix": [
        0.15000000596046448,
        -1.988459292536488e-16,
        0.0,
        0.0,
        8.881783918163163e-16,
        0.6699999570846558,
        -4.205666978252417e-24,
        0.0,
        1.248178746365565e-40,
        9.415672732014163e-26,
        0.014999999664723873,
        0.0,
        -0.7230000495910645,
        0.009676573798060417,
        -0.550000011920929,
        1.0
      ],
      "name": "Cube.008"
    },
    {
      "mesh": 8,
      "name": "Cube.008__0"
    }
  ],
  "samplers": [
    {
      "magFilter": 9729,
      "minFilter": 9987,
      "wrapS": 10497,
      "wrapT": 10497
    }
  ],
  "scene": 0,
  "scenes": [
    {
      "name": "Sketchfab_Scene",
      "nodes": [
        0
      ]
    }
  ],
  "textures": [
    {
      "sampler": 0,
      "source": 0
    }
  ]
}
