{
  "accessors": [
    {
      "bufferView": 2,
      "componentType": 5126,
      "count": 38204,
      "max": [
        2.1899688243865967,
        2.1899688243865967,
        14.368810653686523
      ],
      "min": [
        -2.1899688243865967,
        -2.1899688243865967,
        -0.0073945061303675175
      ],
      "type": "VEC3"
    },
    {
      "bufferView": 2,
      "byteOffset": 458448,
      "componentType": 5126,
      "count": 38204,
      "max": [
        1.0,
        1.0,
        0.9999903440475464
      ],
      "min": [
        -1.0,
        -1.0,
        -0.9999890327453613
      ],
      "type": "VEC3"
    },
    {
      "bufferView": 1,
      "componentType": 5126,
      "count": 38204,
      "max": [
        1.0,
        1.0
      ],
      "min": [
        0.0,
        0.0
      ],
      "type": "VEC2"
    },
    {
      "bufferView": 0,
      "componentType": 5125,
      "count": 210768,
      "type": "SCALAR"
    },
    {
      "bufferView": 2,
      "byteOffset": 916896,
      "componentType": 5126,
      "count": 5733,
      "max": [
        2.0479660034179688,
        2.1103827953338623,
        11.369287490844727
      ],
      "min": [
        -2.0479660034179688,
        -2.1103827953338623,
        0.06031041219830513
      ],
      "type": "VEC3"
    },
    {
      "bufferView": 2,
      "byteOffset": 985692,
      "componentType": 5126,
      "count": 5733,
      "max": [
        1.0,
        1.0,
        1.0
      ],
      "min": [
        -1.0,
        -1.0,
        -1.0
      ],
      "type": "VEC3"
    },
    {
      "bufferView": 1,
      "byteOffset": 305632,
      "componentType": 5126,
      "count": 5733,
      "max": [
        1.0,
        1.0
      ],
      "min": [
        0.0,
        0.0
      ],
      "type": "VEC2"
    },
    {
      "bufferView": 0,
      "byteOffset": 843072,
      "componentType": 5125,
      "count": 33120,
      "type": "SCALAR"
    }
  ],
  "asset": {
    "extras": {
      "author": "ahmeteruyar (https://sketchfab.com/ahmeteruyar)",
      "license": "CC-BY-ND-4.0 (http://creativecommons.org/licenses/by-nd/4.0/)",
      "source": "https://sketchfab.com/3d-models/coco-cola-bottle-e6e7fb7401e44e34836d07f74642467e",
      "title": "Coco Cola bottle"
    },
    "generator": "Sketchfab-12.68.0",
    "version": "2.0"
  },
  "bufferViews": [
    {
      "buffer": 0,
      "byteLength": 975552,
      "name": "floatBufferViews",
      "target": 34963
    },
    {
      "buffer": 0,
      "byteLength": 351496,
      "byteOffset": 975552,
      "byteStride": 8,
      "name": "floatBufferViews",
      "target": 34962
    },
    {
      "buffer": 0,
      "byteLength": 1054488,
      "byteOffset": 1327048,
      "byteStride": 12,
      "name": "floatBufferViews",
      "target": 34962
    }
  ],
  "buffers": [
    {
      "byteLength": 2381536,
      "uri": "scene.bin"
    }
  ],
  "extensionsUsed": [
    "KHR_materials_clearcoat",
    "KHR_materials_transmission"
  ],
  "materials": [
    {
      "alphaMode": "BLEND",
      "doubleSided": true,
      "extensions": {
        "KHR_materials_clearcoat": {
          "clearcoatFactor": 1.0,
          "clearcoatRoughnessFactor": 0.1602515243902439
        },
        "KHR_materials_transmission": {
          "transmissionFactor": 1.0
        }
      },
      "name": "material",
      "pbrMetallicRoughness": {
        "baseColorFactor": [
          0.8,
          0.8,
          0.8,
          0.25
        ],
        "metallicFactor": 0.0,
        "roughnessFactor": 0.5714557926829269
      }
    },
    {
      "doubleSided": true,
      "extensions": {
        "KHR_materials_clearcoat": {
          "clearcoatFactor": 1.0,
          "clearcoatRoughnessFactor": 0.0
        },
        "KHR_materials_transmission": {
          "transmissionFactor": 0.0
        }
      },
      "name": "kola",
      "pbrMetallicRoughness": {
        "baseColorFactor": [
          0.011750637479589597,
          0.0,
          0.0,
          1.0
        ],
        "roughnessFactor": 0.30926067073170727
      }
    }
  ],
  "meshes": [
    {
      "name": "Object_0",
      "primitives": [
        {
          "attributes": {
            "NORMAL": 1,
            "POSITION": 0,
            "TEXCOORD_0": 2
          },
          "indices": 3,
          "material": 0,
          "mode": 4
        }
      ]
    },
    {
      "name": "Object_1",
      "primitives": [
        {
          "attributes": {
            "NORMAL": 5,
            "POSITION": 4,
            "TEXCOORD_0": 6
          },
          "indices": 7,
          "material": 1,
          "mode": 4
        }
      ]
    }
  ],
  "nodes": [
    {
      "children": [
        1
      ],
      "matrix": [
        0.012776410207152367,
        0.0,
        0.0,
        0.0,
        0.0,
        2.8369329568072847e-18,
        -0.012776410207152367,
        0.0,
        0.0,
        0.012776410207152367,
        2.8369329568072847e-18,
        0.0,
        0.0,
        0.0,
        0.0,
        1.0
      ],
      "name": "Sketchfab_model"
    },
    {
      "children": [
        2,
        3
      ],
      "name": "coco_cola.obj.cleaner.materialmerger.gles"
    },
    {
      "mesh": 0,
      "name": "Object_2"
    },
    {
      "mesh": 1,
      "name": "Object_3"
    }
  ],
  "scene": 0,
  "scenes": [
    {
      "name": "Sketchfab_Scene",
      "nodes": [
        0
      ]
    }
  ]
}
