{
  "accessors": [
    {
      "bufferView": 2,
      "componentType": 5126,
      "count": 24264,
      "max": [
        0.21663400530815125,
        1.0568979978561401,
        0.4482260048389435
      ],
      "min": [
        -0.21663400530815125,
        0.0023019909858703613,
        -0.4482260048389435
      ],
      "type": "VEC3"
    },
    {
      "bufferView": 2,
      "byteOffset": 291168,
      "componentType": 5126,
      "count": 24264,
      "max": [
        1.0,
        1.0,
        1.0
      ],
      "min": [
        -1.0,
        -1.0,
        -1.0
      ],
      "type": "VEC3"
    },
    {
      "bufferView": 3,
      "componentType": 5126,
      "count": 24264,
      "max": [
        0.9999958872795105,
        1.0,
        0.9999210834503174,
        1.0
      ],
      "min": [
        -1.0,
        -0.999999463558197,
        -0.9999970197677612,
        -1.0
      ],
      "type": "VEC4"
    },
    {
      "bufferView": 1,
      "componentType": 5126,
      "count": 24264,
      "max": [
        1.0,
        1.0
      ],
      "min": [
        0.0,
        0.004462003707885742
      ],
      "type": "VEC2"
    },
    {
      "bufferView": 1,
      "byteOffset": 194112,
      "componentType": 5126,
      "count": 24264,
      "max": [
        1.0,
        1.0
      ],
      "min": [
        0.0,
        0.004462003707885742
      ],
      "type": "VEC2"
    },
    {
      "bufferView": 1,
      "byteOffset": 388224,
      "componentType": 5126,
      "count": 24264,
      "max": [
        1.0,
        1.0
      ],
      "min": [
        0.0,
        0.004462003707885742
      ],
      "type": "VEC2"
    },
    {
      "bufferView": 1,
      "byteOffset": 582336,
      "componentType": 5126,
      "count": 24264,
      "max": [
        1.0,
        1.0
      ],
      "min": [
        0.0,
        0.004462003707885742
      ],
      "type": "VEC2"
    },
    {
      "bufferView": 1,
      "byteOffset": 776448,
      "componentType": 5126,
      "count": 24264,
      "max": [
        1.0,
        1.0
      ],
      "min": [
        0.0,
        0.004462003707885742
      ],
      "type": "VEC2"
    },
    {
      "bufferView": 0,
      "componentType": 5125,
      "count": 107388,
      "type": "SCALAR"
    }
  ],
  "asset": {
    "extras": {
      "author": "MehraN (https://sketchfab.com/mehran1500)",
      "license": "CC-BY-4.0 (http://creativecommons.org/licenses/by/4.0/)",
      "source": "https://sketchfab.com/3d-models/shopping-trolley-5770a906c5004041b65604126e71b620",
      "title": "Shopping Trolley"
    },
    "generator": "Sketchfab-12.68.0",
    "version": "2.0"
  },
  "bufferViews": [
    {
      "buffer": 0,
      "byteLength": 429552,
      "name": "floatBufferViews",
      "target": 34963
    },
    {
      "buffer": 0,
      "byteLength": 970560,
      "byteOffset": 429552,
      "byteStride": 8,
      "name": "floatBufferViews",
      "target": 34962
    },
    {
      "buffer": 0,
      "byteLength": 582336,
      "byteOffset": 1400112,
      "byteStride": 12,
      "name": "floatBufferViews",
      "target": 34962
    },
    {
      "buffer": 0,
      "byteLength": 388224,
      "byteOffset": 1982448,
      "byteStride": 16,
      "name": "floatBufferViews",
      "target": 34962
    }
  ],
  "buffers": [
    {
      "byteLength": 2370672,
      "uri": "scene.bin"
    }
  ],
  "images": [
    {
      "uri": "textures/initialShadingGroup_baseColor.jpeg"
    },
    {
      "uri": "textures/initialShadingGroup_metallicRoughness.png"
    },
    {
      "uri": "textures/initialShadingGroup_normal.jpeg"
    }
  ],
  "materials": [
    {
      "name": "initialShadingGroup",
      "normalTexture": {
        "index": 2,
        "texCoord": 2
      },
      "occlusionTexture": {
        "index": 1
      },
      "pbrMetallicRoughness": {
        "baseColorTexture": {
          "index": 0
        },
        "metallicRoughnessTexture": {
          "index": 1,
          "texCoord": 1
        }
      }
    }
  ],
  "meshes": [
    {
      "name": "Object_0",
      "primitives": [
        {
          "attributes": {
            "NORMAL": 1,
            "POSITION": 0,
            "TANGENT": 2,
            "TEXCOORD_0": 3,
            "TEXCOORD_1": 4,
            "TEXCOORD_2": 5,
            "TEXCOORD_3": 6,
            "TEXCOORD_4": 7
          },
          "indices": 8,
          "material": 0,
          "mode": 4
        }
      ]
    }
  ],
  "nodes": [
    {
      "children": [
        1
      ],
      "matrix": [
        1.0,
        0.0,
        0.0,
        0.0,
        0.0,
        2.220446049250313e-16,
        -1.0,
        0.0,
        0.0,
        1.0,
        2.220446049250313e-16,
        0.0,
        0.0,
        0.0,
        0.0,
        1.0
      ],
      "name": "Sketchfab_model"
    },
    {
      "children": [
        2
      ],
      "name": "root"
    },
    {
      "children": [
        3
      ],
      "matrix": [
        1.0,
        0.0,
        0.0,
        0.0,
        0.0,
        2.220446049250313e-16,
        1.0,
        0.0,
        0.0,
        -1.0,
        2.220446049250313e-16,
        0.0,
        0.0,
        0.0,
        0.0,
        1.0
      ],
      "name": "GLTF_SceneRootNode"
    },
    {
      "children": [
        4
      ],
      "name": "Trolly%20125.obj_0"
    },
    {
      "children": [
        5
      ],
      "name": "polySurface94_1"
    },
    {
      "children": [
        6
      ],
      "name": "polySurface94_2"
    },
    {
      "mesh": 0,
      "name": "Object_6"
    }
  ],
  "samplers": [
    {
      "magFilter": 9729,
      "minFilter": 9987,
      "wrapS": 10497,
      "wrapT": 10497
    }
  ],
  "scene": 0,
  "scenes": [
    {
      "name": "Sketchfab_Scene",
      "nodes": [
        0
      ]
    }
  ],
  "textures": [
    {
      "sampler": 0,
      "source": 0
    },
    {
      "sampler": 0,
      "source": 1
    },
    {
      "sampler": 0,
      "source": 2
    }
  ]
}
